<?xml version="1.0" standalone="no"?>
<!DOCTYPE svg PUBLIC "-//W3C//DTD SVG 20010904//EN"
 "http://www.w3.org/TR/2001/REC-SVG-20010904/DTD/svg10.dtd">
<svg version="1.0" xmlns="http://www.w3.org/2000/svg"
 width="512.000000pt" height="512.000000pt" viewBox="0 0 512.000000 512.000000"
 preserveAspectRatio="xMidYMid meet">
<metadata>
Created by potrace 1.11, written by Peter Selinger 2001-2013
</metadata>
<g transform="translate(0.000000,512.000000) scale(0.100000,-0.100000)"
fill="#000000" stroke="none">
<path d="M1955 4469 c-204 -34 -386 -99 -532 -192 -45 -28 -70 -80 -51 -104
11 -14 8 -18 -67 -79 -46 -37 -52 -39 -75 -27 -29 14 -56 9 -85 -18 -24 -22
-29 -53 -14 -91 11 -27 -2 -53 -53 -112 -10 -11 -18 -23 -18 -27 0 -4 -17 -5
-37 -3 -87 10 -114 -51 -354 -796 -50 -157 -108 -337 -129 -400 -21 -63 -77
-236 -125 -385 -48 -148 -101 -315 -119 -370 l-32 -100 -45 -7 c-65 -9 -94
-23 -143 -68 -74 -68 -76 -81 -76 -485 0 -395 4 -424 65 -486 19 -20 52 -45
73 -55 36 -18 103 -19 1862 -19 l1825 0 43 23 c24 12 56 37 70 54 59 70 57 50
57 473 0 360 -1 393 -19 427 -39 80 -129 138 -212 138 l-32 0 -152 353 c-84
193 -200 459 -257 591 -57 131 -103 239 -101 241 2 1 51 -10 110 -23 l106 -25
7 -34 c6 -36 32 -57 80 -67 17 -4 39 -8 50 -10 11 -3 90 -21 175 -40 85 -20
176 -41 203 -47 47 -11 47 -11 47 -52 3 -309 234 -551 535 -563 103 -3 167 8
245 44 30 14 58 26 61 26 3 1 30 20 61 43 64 50 106 101 149 178 52 94 63 145
64 278 0 96 -1 99 -28 123 -15 13 -39 24 -51 24 -17 0 -27 9 -36 33 -7 17 -24
49 -38 70 -19 29 -22 41 -14 49 26 26 5 102 -32 115 -32 11 -38 10 -73 -5 -29
-14 -34 -13 -65 5 -33 20 -86 38 -100 35 -5 -1 -8 9 -8 23 0 14 -11 37 -24 50
-23 23 -30 24 -113 21 -111 -5 -211 -38 -296 -98 -15 -11 -31 -18 -36 -16 -8
3 -68 57 -296 267 -22 20 -101 93 -175 161 -74 68 -182 166 -239 219 -57 53
-112 103 -122 112 -10 8 -64 58 -121 111 -271 250 -324 291 -491 378 -101 53
-240 102 -332 119 -33 6 -71 14 -85 17 -40 10 -330 12 -385 3z"/>
</g>
</svg>
